<?xml version="1.0" encoding="UTF-8"?>
<svg width="24px" height="24px" viewBox="0 0 512 512" version="1.1" xmlns="http://www.w3.org/2000/svg" xmlns:xlink="http://www.w3.org/1999/xlink">
    <!-- Generator: Sketch 41.2 (35397) - http://www.bohemiancoding.com/sketch -->
    <title>bsk-bug-rounded</title>
    <desc>Created with Sketch.</desc>
    <defs>
        <path d="M511.999792,350.532086 C511.999792,350.532086 512.123801,403.895696 506.313908,427.025077 C500.504016,450.154457 489.835295,466.280479 478.012997,478.100396 C466.138195,489.972808 450.407632,500.768319 426.429512,506.392804 C402.451893,512.017288 350.424379,511.918297 350.424379,511.918297 L161.412112,511.99979 C161.412112,511.99979 108.039508,512.124278 84.9069451,506.315311 C61.7738826,500.505843 45.6452933,489.83882 33.8234948,478.018404 C21.9486927,466.145492 11.1519635,450.417433 5.52658355,426.44363 C-0.0987964084,402.469827 0.000210278793,350.450594 0.000210278793,350.450594 L0.000210278793,161.467911 C0.000210278793,161.467911 -0.124298131,108.104301 5.68609432,84.974921 C11.4959867,61.8455405 22.1647073,45.7200182 33.9870058,33.9001013 C45.8618079,22.0271893 61.5923704,11.2316786 85.5699899,5.60719402 C109.548109,-0.0172905712 161.575123,0.0817003576 161.575123,0.0817003576 L350.58789,0.000207825295 C350.58789,0.000207825295 403.960495,-0.123780813 427.093057,5.68518687 C450.22612,11.4941546 466.354209,22.1611771 478.176008,33.9815939 C490.05081,45.8545059 500.848039,61.5825646 506.473419,85.5563677 C512.098799,109.530671 511.999792,161.549404 511.999792,161.549404 L511.999792,350.532086 Z" id="path-1"></path>
    </defs>
    <g id="Symbols" stroke="none" stroke-width="1" fill="none" fill-rule="evenodd">
        <g id="bsk-bug-rounded">
            <mask id="mask-2" fill="white">
                <use xlink:href="#path-1"></use>
            </mask>
            <use id="Fill-1" fill="#B9B9B9" xlink:href="#path-1"></use>
            <g id="bsk-bug-rev" mask="url(#mask-2)">
                <g transform="translate(117.000000, 122.000000)">                    
                    <path d="M55.7624609,83.4329016 C78.8764446,83.4329016 97.6140306,64.7558104 97.6140306,41.7164508 C97.6140306,18.6770912 78.8764446,0 55.7624609,0 C32.6484771,0 13.9108911,18.6770912 13.9108911,41.7164508 C13.9108911,64.7558104 32.6484771,83.4329016 55.7624609,83.4329016 Z M223.16874,83.4329016 C246.282724,83.4329016 265.02031,64.7558104 265.02031,41.7164508 C265.02031,18.6770912 246.282724,0 223.16874,0 C200.054756,0 181.31717,18.6770912 181.31717,41.7164508 C181.31717,64.7558104 200.054756,83.4329016 223.16874,83.4329016 Z M223.16874,250.298705 C246.282724,250.298705 265.02031,231.621614 265.02031,208.582254 C265.02031,185.542894 246.282724,166.865803 223.16874,166.865803 C200.054756,166.865803 181.31717,185.542894 181.31717,208.582254 C181.31717,231.621614 200.054756,250.298705 223.16874,250.298705 Z M55.7624609,250.298705 C78.8764446,250.298705 97.6140306,231.621614 97.6140306,208.582254 C97.6140306,185.542894 78.8764446,166.865803 55.7624609,166.865803 C32.6484771,166.865803 13.9108911,185.542894 13.9108911,208.582254 C13.9108911,231.621614 32.6484771,250.298705 55.7624609,250.298705 Z" id="4dots-rev" fill="#FFFFFF"></path>
                </g>
            </g>
        </g>
    </g>
</svg>
