<svg width="24" height="24" viewBox="0 0 24 24" fill="none" xmlns="http://www.w3.org/2000/svg">
<path fill-rule="evenodd" clip-rule="evenodd" d="M11.7884 0C5.27902 0 0 5.45683 0 12.1886C0 17.5736 3.37773 22.1416 8.06256 23.7533C8.65241 23.8655 8.86737 23.4891 8.86737 23.1659C8.86737 22.8771 8.85723 22.1102 8.85144 21.0933C5.57214 21.8296 4.88024 19.4592 4.88024 19.4592C4.34394 18.051 3.57097 17.6762 3.57097 17.6762C2.50055 16.9204 3.65203 16.9354 3.65203 16.9354C4.83536 17.0215 5.45779 18.1917 5.45779 18.1917C6.50939 20.054 8.21744 19.516 8.88908 19.204C8.99619 18.4169 9.30089 17.8797 9.63743 17.5751C7.01964 17.2676 4.26722 16.2216 4.26722 11.5512C4.26722 10.2208 4.7268 9.13213 5.48095 8.28065C5.35936 7.97238 4.95478 6.73256 5.59675 5.05503C5.59675 5.05503 6.58611 4.72731 8.83842 6.30457C9.77857 6.03372 10.7875 5.89903 11.7899 5.8938C12.7915 5.89903 13.7997 6.03372 14.7413 6.30457C16.9922 4.72731 17.9801 5.05503 17.9801 5.05503C18.6235 6.73256 18.2189 7.97238 18.0981 8.28065C18.8536 9.13213 19.3096 10.2208 19.3096 11.5512C19.3096 16.2336 16.5529 17.2639 13.9271 17.5654C14.3498 17.9418 14.7268 18.6855 14.7268 19.8228C14.7268 21.4517 14.7124 22.7664 14.7124 23.1659C14.7124 23.4921 14.9251 23.8715 15.523 23.7525C20.2042 22.1371 23.579 17.5722 23.579 12.1886C23.579 5.45683 18.3 0 11.7884 0Z" fill="#B9B9B9"/>
</svg>
