<?xml version="1.0" encoding="UTF-8"?>
<svg width="24px" height="24px" viewBox="0 0 24 24" version="1.1" xmlns="http://www.w3.org/2000/svg" xmlns:xlink="http://www.w3.org/1999/xlink">
    <!-- Generator: Sketch 46.2 (44496) - http://www.bohemiancoding.com/sketch -->
    <title>linkedin-logo</title>
    <desc>Created with Sketch.</desc>
    <defs></defs>
    <g id="Page-1" stroke="none" stroke-width="1" fill="none" fill-rule="evenodd">
        <g id="linkedin-logo" fill-rule="nonzero" fill="#BCBCBC">
            <path d="M22.182181,0 L1.76976334,0 C0.792334107,0 0.00011136891,0.768055684 0.00011136891,1.71602784 L0.00011136891,22.2341346 C0.00011136891,23.1821624 0.792612529,23.9508863 1.76976334,23.9508863 L22.182181,23.9508863 C23.1593875,23.9508863 23.9507193,23.1816613 23.9507193,22.2341346 L23.9507193,1.71602784 C23.9507193,0.768334107 23.1593875,0 22.182181,0 Z M7.2612529,20.0485197 L3.64248724,20.0485197 L3.64248724,9.2349884 L7.2612529,9.2349884 L7.2612529,20.0485197 Z M5.45223202,7.75767981 L5.42789791,7.75767981 C4.21436659,7.75767981 3.4277123,6.9277587 3.4277123,5.88874246 C3.4277123,4.82878886 4.23747564,4.02136427 5.47506265,4.02136427 C6.71276102,4.02136427 7.47407889,4.82856613 7.49813457,5.88874246 C7.49813457,6.92798144 6.71303944,7.75767981 5.45223202,7.75767981 Z M20.3058376,20.0485197 L16.6882413,20.0485197 L16.6882413,14.2629049 C16.6882413,12.8091508 16.1640835,11.8171879 14.8558329,11.8171879 C13.8550162,11.8171879 13.2609188,12.4864037 13.0000371,13.1325104 C12.9033689,13.3632668 12.8794246,13.6860139 12.8794246,14.0083155 L12.8794246,20.048297 L9.26249652,20.048297 C9.26249652,20.048297 9.30982831,10.2490023 9.26249652,9.23482135 L12.8799814,9.23482135 L12.8799814,10.7678701 C13.3602042,10.0312204 14.2183573,8.98039907 16.1394153,8.98039907 C18.5204826,8.98039907 20.3058376,10.5250302 20.3058376,13.848 L20.3058376,20.0485197 Z M12.856594,10.8294371 C12.867694,10.8112371 12.883194,10.7893371 12.898594,10.7680371 L12.898594,10.8294371 L12.856594,10.8294371 Z" id="LinkedIn__x28_alt_x29_"></path>
        </g>
    </g>
</svg>